<svg width="18" height="10" viewBox="0 0 18 10" fill="none" xmlns="http://www.w3.org/2000/svg">
<path d="M16.9549 0.616227C16.7205 0.381889 16.4026 0.250244 16.0712 0.250244C15.7397 0.250244 15.4218 0.381889 15.1874 0.616227L8.99994 6.80373L2.81244 0.616227C2.57669 0.38853 2.26093 0.262536 1.93319 0.265384C1.60544 0.268232 1.29193 0.399694 1.06017 0.631454C0.828405 0.863214 0.696945 1.17673 0.694098 1.50448C0.69125 1.83222 0.817242 2.14797 1.04494 2.38373L8.11619 9.45498C8.3506 9.68932 8.66848 9.82096 8.99994 9.82096C9.3314 9.82096 9.64928 9.68932 9.88369 9.45498L16.9549 2.38373C17.1893 2.14932 17.3209 1.83143 17.3209 1.49998C17.3209 1.16852 17.1893 0.850637 16.9549 0.616227Z" fill="black"/>
</svg>
