<svg width="16" height="26" viewBox="0 0 16 26" fill="none" xmlns="http://www.w3.org/2000/svg">
<path d="M14.629 1.07876C14.9805 1.43037 15.178 1.9072 15.178 2.40438C15.178 2.90157 14.9805 3.3784 14.629 3.73001L5.34775 13.0113L14.629 22.2925C14.9706 22.6461 15.1595 23.1198 15.1553 23.6114C15.151 24.103 14.9538 24.5733 14.6062 24.9209C14.2585 25.2686 13.7883 25.4658 13.2966 25.47C12.805 25.4743 12.3314 25.2853 11.9778 24.9438L1.37088 14.3369C1.01937 13.9853 0.821903 13.5084 0.821903 13.0113C0.821903 12.5141 1.01937 12.0372 1.37088 11.6856L11.9778 1.07876C12.3294 0.727252 12.8062 0.529785 13.3034 0.529785C13.8006 0.529785 14.2774 0.727252 14.629 1.07876Z" fill="black"/>
</svg>
