<svg width="16" height="26" viewBox="0 0 16 26" fill="none" xmlns="http://www.w3.org/2000/svg">
<path d="M1.371 1.07876C1.01949 1.43037 0.822021 1.9072 0.822021 2.40438C0.822021 2.90157 1.01949 3.3784 1.371 3.73001L10.6522 13.0113L1.371 22.2925C1.02945 22.6461 0.84046 23.1198 0.844732 23.6114C0.849004 24.103 1.0462 24.5733 1.39384 24.9209C1.74148 25.2686 2.21175 25.4658 2.70337 25.47C3.19499 25.4743 3.66862 25.2853 4.02225 24.9438L14.6291 14.3369C14.9806 13.9853 15.1781 13.5084 15.1781 13.0113C15.1781 12.5141 14.9806 12.0372 14.6291 11.6856L4.02225 1.07876C3.67063 0.727252 3.1938 0.529785 2.69662 0.529785C2.19944 0.529785 1.72261 0.727252 1.371 1.07876Z" fill="black"/>
</svg>
