<svg width="94" height="94" viewBox="0 0 94 94" fill="none" xmlns="http://www.w3.org/2000/svg">
<path d="M0 20C0 8.95432 8.95431 0 20 0H73.3333C84.379 0 93.3333 8.95431 93.3333 20V73.3333C93.3333 84.379 84.379 93.3333 73.3333 93.3333H20C8.95432 93.3333 0 84.379 0 73.3333V20Z" fill="#D7F5DC"/>
<path fill-rule="evenodd" clip-rule="evenodd" d="M59.0027 38.6421C60.7556 38.6421 62.3355 37.5877 63.005 35.9712C63.6744 34.3548 63.3012 32.4951 62.0596 31.2605C60.818 30.0259 58.953 29.6598 57.3352 30.3333C55.7175 31.0067 54.6662 32.5868 54.6722 34.3358C54.6803 36.7165 56.6167 38.6421 59.0027 38.6421ZM59.0027 32.4693C60.0358 32.4693 60.8734 33.3049 60.8734 34.3358C60.8734 35.3667 60.0358 36.2023 59.0027 36.2023C57.9696 36.2023 57.132 35.3667 57.132 34.3358C57.132 33.3049 57.9696 32.4693 59.0027 32.4693ZM32.4599 53.3246C32.4599 58.204 35.1554 60.8789 40.0309 60.8789C40.7109 60.8868 41.2602 61.435 41.2682 62.1135C41.2601 62.7896 40.7085 63.3334 40.0309 63.3333C33.8444 63.3333 30 59.4974 30 53.3246V41.317C30 35.1294 33.8444 31.2935 40.0309 31.2935H50.8719C51.5495 31.3015 52.0945 31.8519 52.0945 32.528C52.0945 32.8541 51.9637 33.1667 51.7312 33.3959C51.4988 33.6251 51.184 33.7518 50.8572 33.7479H40.0309C35.1554 33.7479 32.4599 36.4375 32.4599 41.317V53.3246ZM49.7819 50.1206C49.5756 50.3747 49.2813 50.5425 48.9571 50.5909C48.6344 50.6236 48.3117 50.5286 48.0586 50.3263L43.5366 46.7843L39.4712 52.0606C39.2773 52.3238 38.9858 52.4984 38.6619 52.5453C38.338 52.5923 38.0087 52.5077 37.7478 52.3104C37.2154 51.8939 37.1169 51.1279 37.5269 50.5909L42.3435 44.3299C42.5444 44.0703 42.8406 43.9012 43.1667 43.8598C43.4928 43.8184 43.8219 43.9083 44.0816 44.1094L48.6036 47.6514L52.5806 42.5809C53.0171 42.1668 53.6909 42.1316 54.1684 42.4981C54.6459 42.8645 54.7846 43.5234 54.4954 44.0506L49.7819 50.1206ZM60.9323 41.317C60.2571 41.317 59.7097 41.8631 59.7097 42.5368V53.3246C59.6655 58.204 56.97 60.8789 52.0945 60.8789H47.1748C46.4948 60.8868 45.9455 61.4349 45.9375 62.1135C45.9456 62.7896 46.4972 63.3334 47.1748 63.3333H52.0945C58.281 63.3333 62.1401 59.4974 62.1401 53.3246V42.5368C62.1402 41.8688 61.6017 41.325 60.9323 41.317Z" fill="#130F26"/>
</svg>
