<svg width="94" height="92" viewBox="0 0 94 92" fill="none" xmlns="http://www.w3.org/2000/svg">
<path d="M0 20C0 8.95429 8.95431 0 20 0H73.3333C84.379 0 93.3333 8.9543 93.3333 20V71.6667C93.3333 82.7124 84.379 91.6667 73.3333 91.6667H20C8.95432 91.6667 0 82.7124 0 71.6667V20Z" fill="#D7F5DC"/>
<path fill-rule="evenodd" clip-rule="evenodd" d="M55.8677 30.5045C58.558 31.3412 60.7951 33.2629 62.0589 35.823C63.5367 38.926 63.7378 42.5014 62.6178 45.756C61.5868 48.7521 59.8966 51.4682 57.6765 53.6963C56.2209 55.1924 54.6524 56.57 52.9853 57.8163L52.8971 57.8912C52.3433 58.2641 51.5985 58.1176 51.2206 57.5616C51.0285 57.2931 50.9514 56.9567 51.0068 56.6293C51.0622 56.3018 51.2455 56.0112 51.5147 55.8237C53.079 54.6451 54.5538 53.348 55.9265 51.9434C57.9036 49.9979 59.4133 47.6139 60.3383 44.9769C61.228 42.3493 61.048 39.4681 59.8383 36.9766C58.8649 35.0167 57.1498 33.5453 55.0883 32.9016C52.4589 32.064 49.5942 32.5717 47.3971 34.2649C46.9603 34.5946 46.3633 34.5946 45.9265 34.2649C43.7303 32.5694 40.8645 32.0614 38.2353 32.9016C36.1599 33.531 34.4277 34.998 33.4411 36.9617C32.2588 39.4513 32.0896 42.3159 32.9705 44.932C33.8994 47.5626 35.4088 49.9409 37.3823 51.8835C40.2983 54.732 43.5139 57.2442 46.9706 59.3744C47.4102 59.6851 47.6036 60.2488 47.4495 60.7708C47.2955 61.2928 46.829 61.6545 46.2941 61.6666C46.053 61.6681 45.8171 61.5949 45.6176 61.4569C42.0168 59.2382 38.6679 56.6205 35.6323 53.6514C33.3999 51.4306 31.7035 48.7126 30.6764 45.711C29.595 42.4609 29.817 38.9073 31.294 35.823C32.5578 33.2629 34.7949 31.3412 37.4852 30.5045C40.5784 29.5312 43.9344 29.9797 46.6765 31.733C49.4185 29.9797 52.7745 29.5312 55.8677 30.5045ZM54.6618 41.9806C54.6004 40.596 53.6953 39.3986 52.3971 38.9842C51.9144 38.6772 51.7001 38.074 51.8779 37.5234C52.0557 36.9727 52.5798 36.6171 53.1471 36.662C55.3399 37.3672 56.9007 39.3474 57.103 41.6809C57.1445 42.0072 57.0558 42.3368 56.8568 42.5958C56.6577 42.8549 56.365 43.0218 56.0442 43.0592C55.3707 43.1479 54.7532 42.6661 54.6618 41.9806Z" fill="#130F26"/>
</svg>
