<svg width="94" height="93" viewBox="0 0 94 93" fill="none" xmlns="http://www.w3.org/2000/svg">
<path d="M0 20C0 8.95428 8.95431 0 20 0H73.3167C84.3624 0 93.3167 8.95431 93.3167 20V72.8905C93.3167 83.9362 84.3624 92.8905 73.3167 92.8905H20C8.95431 92.8905 0 83.9362 0 72.8905V20Z" fill="#D7F5DC"/>
<path fill-rule="evenodd" clip-rule="evenodd" d="M56.9717 34.3017H53.7C53.39 31.8783 51.315 30 48.81 30H44.5067C42.0017 30 39.9267 31.8767 39.6167 34.3L36.3617 34.3017C32.8533 34.3017 30 37.1483 30 40.6467V46.425C30 46.845 30.21 47.2367 30.5617 47.4683C33.9933 49.7333 38.055 51.2417 42.3067 51.8333C42.9383 51.9267 43.5183 51.5317 43.685 50.925C44.0567 49.5733 45.2483 48.665 46.65 48.665C48.0367 48.665 49.24 49.5933 49.5767 50.9183C49.7183 51.4783 50.2233 51.8617 50.7867 51.8617C50.845 51.8617 50.9017 51.8583 50.96 51.85C55.24 51.2583 59.32 49.7417 62.7567 47.4683C63.1067 47.235 63.3167 46.845 63.3167 46.425V40.6467C63.3167 37.1483 60.47 34.3017 56.9717 34.3017ZM60.8167 45.7417C58.0783 47.4433 54.9217 48.635 51.5983 49.22C50.685 47.375 48.785 46.165 46.65 46.165C44.5317 46.165 42.6233 47.3717 41.685 49.205C38.3817 48.6233 35.235 47.4383 32.5 45.7417V40.6467C32.5 38.5267 34.2317 36.8017 36.3633 36.8017L40.8267 36.7983C41.16 36.7983 41.4767 36.6667 41.7117 36.4317C41.945 36.195 42.0767 35.8783 42.0767 35.5467L42.075 34.93C42.075 33.59 43.1667 32.5 44.5067 32.5H48.81C49.9317 32.5 50.88 33.265 51.1583 34.3017H46.6583C45.9683 34.3017 45.4083 34.8617 45.4083 35.5517C45.4083 36.2417 45.9683 36.8017 46.6583 36.8017H56.9717C59.0917 36.8017 60.8167 38.5267 60.8167 40.6467V45.7417ZM47.908 52.3057V54.4623C47.908 55.1523 47.348 55.7123 46.658 55.7123C45.968 55.7123 45.408 55.1523 45.408 54.4623V52.3057C45.408 51.6157 45.968 51.0557 46.658 51.0557C47.348 51.0557 47.908 51.6157 47.908 52.3057ZM62.025 51.2088C61.37 51.2088 60.8483 51.7188 60.7983 52.3588C60.7983 52.3588 60.5417 55.2738 60.4883 56.1938C60.4267 57.2122 60.0133 58.3205 59.435 59.0155C58.62 59.9988 57.7167 60.3838 56.2133 60.3872C55.2267 60.3888 49.905 60.3905 45.885 60.3905C45.1933 60.3905 44.6333 60.9505 44.6333 61.6405C44.6333 62.3305 45.1933 62.8905 45.8833 62.8905C49.7633 62.8905 55.2867 62.8888 56.2183 62.8872C58.4417 62.8822 60.0767 62.1588 61.36 60.6122C62.2817 59.5022 62.8883 57.9072 62.9833 56.3438C63.0211 55.701 63.1503 54.0335 63.2222 53.1044L63.2223 53.1038C63.2518 52.7228 63.2717 52.4662 63.2717 52.4555C63.2717 51.7672 62.7133 51.2088 62.025 51.2088ZM37.1037 60.3868C37.4303 60.3885 38.107 60.3885 38.9953 60.3885C39.6853 60.3885 40.2503 60.9485 40.2503 61.6385C40.2503 62.3285 39.6837 62.8885 38.992 62.8885C38.092 62.8885 37.4353 62.8885 37.1003 62.8868C34.8753 62.8818 33.2403 62.1585 31.957 60.6102C31.037 59.5018 30.4287 57.9068 30.3353 56.3435C30.2969 55.7099 30.1705 54.0807 30.0979 53.1444C30.0666 52.741 30.0453 52.4662 30.0453 52.4552C30.0453 51.7668 30.6037 51.2085 31.292 51.2085C31.947 51.2085 32.467 51.7185 32.5187 52.3602C32.5187 52.3602 32.7753 55.2752 32.8303 56.1935C32.892 57.2118 33.3037 58.3202 33.882 59.0135C34.6987 60.0002 35.602 60.3835 37.1037 60.3868Z" fill="#130F26"/>
</svg>
